During the on-going Vietnam War, Captain Willard is sent on a dangerous mission into Cambodia to assassinate a renegade Green Beret who has set himself up as a God among a local tribe. 


Director: Francis Ford Coppola
Writers: John Milius, Francis Ford Coppola. 
Stars:Martin Sheen, Marlon Brando and Robert Duvall

Media info:

General
Complete name                    : E:\torrent2\APOCALYPSE.NOW.2001.REDUX.MKV 1080P.DTS 5.1-ACB-Team\APOCALYPSE.NOW.2001.REDUX.MKV 1080P.DTS 5.1-ACB-Team.mkv
Format                           : Matroska
File size                        : 26.7 GiB
Duration                         : 3h 16mn
Overall bit rate                 : 19.5 Mbps
Writing application              : AVI-Mux GUI 1.17.8.3, Feb 16 201019:42:50
Writing library                  : matroska muxer by Alexander Noe, build date Feb 16 2010

Video
ID                               : 1
Format                           : AVC
Format/Info                      : Advanced Video Codec
Format profile                   : High@L4.1
Format settings, CABAC           : Yes
Format settings, ReFrames        : 4 frames
Muxing mode                      : Container profile=Unknown@0.0
Codec ID                         : V_MPEG4/ISO/AVC
Duration                         : 3h 16mn
Bit rate mode                    : Variable
Bit rate                         : 17.6 Mbps
Maximum bit rate                 : 35.0 Mbps
Width                            : 1 920 pixels
Height                           : 1 080 pixels
Display aspect ratio             : 16:9
Frame rate                       : 23.976 fps
Color space                      : YUV
Chroma subsampling               : 4:2:0
Bit depth                        : 8 bits
Scan type                        : Progressive
Bits/(Pixel*Frame)               : 0.354
Stream size                      : 24.1 GiB (90%)
Color primaries                  : BT.709-5, BT.1361, IEC 61966-2-4, SMPTE RP177
Transfer characteristics         : BT.709-5, BT.1361
Matrix coefficients              : BT.709-5, BT.1361, IEC 61966-2-4 709, SMPTE RP177

Audio
ID                               : 2
Format                           : DTS
Format/Info                      : Digital Theater Systems
Codec ID                         : A_DTS
Duration                         : 3h 16mn
Bit rate mode                    : Constant
Bit rate                         : 1 510 Kbps
Channel(s)                       : 6 channels
Channel positions                : Front: L C R, Side: L R, LFE
Sampling rate                    : 48.0 KHz
Bit depth                        : 24 bits
Stream size                      : 2.07 GiB (8%)
Language                         : English / English

Text
ID                               : 3
Format                           : UTF-8
Codec ID                         : S_TEXT/UTF8
Codec ID/Info                    : UTF-8 Plain Text
Language                         : English / Dutch

Menu
00:00:00.000                     : en:00:00:00.000
00:09:25.273                     : en:00:09:25.273
00:20:24.432                     : en:00:20:24.432
00:24:10.866                     : en:00:24:10.866
00:31:15.123                     : en:00:31:15.123
00:34:11.383                     : en:00:34:11.383
00:45:03.034                     : en:00:45:03.034
00:52:05.664                     : en:00:52:05.664
01:03:27.762                     : en:01:03:27.762
01:17:10.751                     : en:01:17:10.751
01:34:19.404                     : en:01:34:19.404
01:39:37.763                     : en:01:39:37.763
01:49:20.721                     : en:01:49:20.721
01:55:02.771                     : en:01:55:02.771
02:27:41.102                     : en:02:27:41.102
02:36:25.668                     : en:02:36:25.668
02:45:19.868                     : en:02:45:19.868
03:03:10.563                     : en:03:03:10.563
03:10:11.025                     : en:03:10:11.025

